<svg xmlns="http://www.w3.org/2000/svg" xmlns:xlink="http://www.w3.org/1999/xlink" width="1920" height="689" viewBox="0 0 1920 689">
  <defs>
    <clipPath id="clip-path">
      <rect id="Rectangle_19" data-name="Rectangle 19" width="1920" height="689" transform="translate(0 100)" fill="#2a005d"/>
    </clipPath>
    <linearGradient id="linear-gradient" x1="0.926" y1="0.532" x2="1.119" y2="0.527" gradientUnits="objectBoundingBox">
      <stop offset="0" stop-color="#6747c0"/>
      <stop offset="1" stop-color="#ac8eff"/>
    </linearGradient>
    <linearGradient id="linear-gradient-2" x1="0.659" y1="0.525" x2="0.976" y2="0.538" xlink:href="#linear-gradient"/>
    <linearGradient id="linear-gradient-3" x1="0.454" y1="0.546" x2="0.889" y2="0.565" gradientUnits="objectBoundingBox">
      <stop offset="0" stop-color="#6747c0"/>
      <stop offset="1" stop-color="#8d67f8"/>
    </linearGradient>
    <linearGradient id="linear-gradient-4" x1="1.02" y1="0.583" x2="-0.016" y2="0.608" gradientUnits="objectBoundingBox">
      <stop offset="0" stop-color="#9c93ff"/>
      <stop offset="1" stop-color="#645bc7"/>
    </linearGradient>
  </defs>
  <g id="hero" transform="translate(0 -100)">
    <g id="Mask_Group_1" data-name="Mask Group 1" clip-path="url(#clip-path)">
      <rect id="Rectangle_20" data-name="Rectangle 20" width="1920" height="800" transform="translate(0 100)" fill="url(#linear-gradient)"/>
      <g id="Group_80" data-name="Group 80" transform="translate(0 100)">
        <path id="Path_90" data-name="Path 90" d="M1405,418c0,143.55-71.94,273.13-187.5,365.22q-10.815,8.625-22.12,16.78H396.62C268.19,707.24,187,570.5,187,418,187,244.34,292.29,91.11,452.73,0h686.54a601.875,601.875,0,0,1,78.23,52.78C1333.06,144.87,1405,274.45,1405,418Z" transform="translate(592)" fill="url(#linear-gradient-2)"/>
        <path id="Path_88" data-name="Path 88" d="M1405,418c0,143.55-71.94,273.13-187.5,365.22q-10.815,8.625-22.12,16.78H396.62C268.19,707.24,187,570.5,187,418,187,244.34,292.29,91.11,452.73,0h686.54a601.875,601.875,0,0,1,78.23,52.78C1333.06,144.87,1405,274.45,1405,418Z" fill="url(#linear-gradient-3)"/>
        <path id="Path_89" data-name="Path 89" d="M802,418c0,118.91-49.37,228.24-132,314.61A564.624,564.624,0,0,1,592.38,800H0V0H536.27C586.85,28.71,631.95,63.62,670,103.39,752.63,189.76,802,299.09,802,418Z" transform="translate(-110)" fill="url(#linear-gradient-4)"/>
      </g>
    </g>
    <rect id="Rectangle_18" data-name="Rectangle 18" width="1920" height="689" transform="translate(0 100)" fill="#8827ff" opacity="0.65"/>
  </g>
</svg>
