<svg id="icon-tc-generator" xmlns="http://www.w3.org/2000/svg" width="59.995" height="60" viewBox="0 0 59.995 60">
  <rect id="Rectangle_35" data-name="Rectangle 35" width="59.995" height="59.995" fill="#6f0ee6" opacity="0"/>
  <g id="Group_100" data-name="Group 100" transform="translate(4.5)">
    <g id="Group_97" data-name="Group 97">
      <g id="Group_96" data-name="Group 96">
        <path id="Path_94" data-name="Path 94" d="M88.74,4.818C79.759.506,64.554.019,63.879,0c-.637,0-15.843.506-24.823,4.818A1.141,1.141,0,0,0,38.4,5.85V30.41c0,.75.45,18.58,25.1,29.491a1.121,1.121,0,0,0,.919,0c24.561-10.912,24.954-28.76,24.954-29.51V5.85A1.113,1.113,0,0,0,88.74,4.818ZM87.109,30.391c0,.169-.431,16.892-23.229,27.223C41.175,47.34,40.669,31.085,40.65,30.391V6.581c8.4-3.75,22.442-4.275,23.229-4.293s14.83.562,23.229,4.293Z" transform="translate(-38.4)" fill="#6f0ee6"/>
      </g>
    </g>
    <g id="Group_99" data-name="Group 99" transform="translate(5.418 6.431)">
      <g id="Group_98" data-name="Group 98">
        <path id="Path_95" data-name="Path 95" d="M80.831,7.2C73.8,3.767,61.932,3.43,61.426,3.43h-.075c-.544.019-12.412.394-19.4,3.768h0A1.141,1.141,0,0,0,41.29,8.23V27.316c0,.6.356,14.624,19.63,23.154a1.121,1.121,0,0,0,.919,0C81.112,41.921,81.468,27.9,81.468,27.3V8.23A1.124,1.124,0,0,0,80.831,7.2ZM43.54,8.961C50.046,6.149,60.657,5.736,61.351,5.7A74.7,74.7,0,0,1,74.419,7.423L43.54,26.566ZM79.162,27.3c-.019.525-.412,12.955-17.811,20.886A35.627,35.627,0,0,1,49.164,39.54l30-18.674ZM47.664,37.74a21.941,21.941,0,0,1-3.956-8.624L77.325,8.286q.928.309,1.8.675l.037,9.224Z" transform="translate(-41.29 -3.43)" fill="#6f0ee6"/>
      </g>
    </g>
  </g>
</svg>
