<svg id="icon-d-generator" xmlns="http://www.w3.org/2000/svg" width="59.995" height="59.995" viewBox="0 0 59.995 59.995">
  <rect id="Rectangle_34" data-name="Rectangle 34" width="59.995" height="59.995" fill="#6f0ee6" opacity="0"/>
  <g id="Group_94" data-name="Group 94" transform="translate(1.875 1.875)">
    <g id="Group_93" data-name="Group 93">
      <g id="Group_92" data-name="Group 92">
        <path id="Path_91" data-name="Path 91" d="M120.159,1H78.087A7.13,7.13,0,0,0,71,8.087v42.09a7.13,7.13,0,0,0,7.087,7.087h42.09a7.13,7.13,0,0,0,7.087-7.087V8.087A7.158,7.158,0,0,0,120.159,1Zm4.912,49.159H125a4.929,4.929,0,0,1-4.912,4.912h-42a4.929,4.929,0,0,1-4.912-4.912V8.087a4.929,4.929,0,0,1,4.912-4.912h42.09a4.929,4.929,0,0,1,4.912,4.912l-.019,42.072Z" transform="translate(-71 -1)" fill="#6f0ee6"/>
        <path id="Path_92" data-name="Path 92" d="M94.5,18.981H92.043a5.621,5.621,0,0,0-.75-1.762L93,15.512a1.114,1.114,0,0,0-1.575-1.575l-1.706,1.706a5.813,5.813,0,0,0-1.762-.75V12.437a1.087,1.087,0,0,0-2.175,0v2.456a5.621,5.621,0,0,0-1.762.75l-1.706-1.706a1.114,1.114,0,1,0-1.575,1.575l1.706,1.706a5.812,5.812,0,0,0-.75,1.762H79.237a1.087,1.087,0,1,0,0,2.175h2.456a5.621,5.621,0,0,0,.75,1.762l-1.706,1.706a1.156,1.156,0,0,0,0,1.575,1,1,0,0,0,1.5,0L84,24.493a5.812,5.812,0,0,0,1.762.75V27.7a1.087,1.087,0,0,0,2.175,0V25.243a5.621,5.621,0,0,0,1.762-.75L91.461,26.2a1,1,0,0,0,1.5,0,1.156,1.156,0,0,0,0-1.575l-1.706-1.762a5.114,5.114,0,0,0,.75-1.762h2.456a1.065,1.065,0,0,0,1.087-1.087A.97.97,0,0,0,94.5,18.981Zm-7.631,4.143a3.056,3.056,0,1,1,3.056-3.056A2.987,2.987,0,0,1,86.868,23.124Z" transform="translate(-64.745 8.055)" fill="#6f0ee6"/>
        <path id="Path_93" data-name="Path 93" d="M116.564,19.788a4.012,4.012,0,1,0,0-8.024H115.4A7.035,7.035,0,0,0,108.39,5.37H82.367a7.13,7.13,0,0,0-7.087,7.087V38.4a7.13,7.13,0,0,0,7.087,7.087h25.948A7.13,7.13,0,0,0,115.4,38.4V37.58h1.087a4.012,4.012,0,1,0,0-8.024H115.4v-9.73l1.162-.037Zm-3.337,18.449a4.929,4.929,0,0,1-4.912,4.912H82.367a4.929,4.929,0,0,1-4.912-4.912V12.288a4.929,4.929,0,0,1,4.912-4.912h25.948a4.906,4.906,0,0,1,4.837,4.218H112.14a4.012,4.012,0,0,0,0,8.024h1.087v9.73H112.14a4.012,4.012,0,0,0,0,8.024h1.087v.862Zm3.393-6.674a1.814,1.814,0,0,1,1.762,1.837,1.84,1.84,0,0,1-1.837,1.837H112.2a1.837,1.837,0,0,1,0-3.675Zm-4.5-14.024a1.837,1.837,0,1,1,0-3.675h4.425a1.837,1.837,0,1,1,0,3.675Z" transform="translate(-67.256 2.823)" fill="#6f0ee6"/>
      </g>
    </g>
  </g>
</svg>
