<svg xmlns="http://www.w3.org/2000/svg" xmlns:xlink="http://www.w3.org/1999/xlink" viewBox="0 0 563.5 100.92"><defs><style>.cls-1{isolation:isolate;}.cls-2{fill:#0b4ff3;}.cls-3{opacity:0.17;mix-blend-mode:screen;fill:url(#linear-gradient);}.cls-4{opacity:0.3;fill:url(#linear-gradient-2);}.cls-4,.cls-6{mix-blend-mode:color-burn;}.cls-5{fill:#5bdcff;}.cls-6{opacity:0.36;fill:url(#linear-gradient-3);}.cls-7{fill:#33415c;}.cls-8{fill:#002fa1;}</style><linearGradient id="linear-gradient" x1="33.83" y1="5.25" x2="88.61" y2="92.94" gradientUnits="userSpaceOnUse"><stop offset="0" stop-color="#fff" stop-opacity="0"/><stop offset="1"/></linearGradient><linearGradient id="linear-gradient-2" x1="-1.89" y1="74.58" x2="88.65" y2="50.52" gradientUnits="userSpaceOnUse"><stop offset="0" stop-opacity="0"/><stop offset="1"/></linearGradient><linearGradient id="linear-gradient-3" x1="96.81" y1="25.64" x2="77.52" y2="9.4" xlink:href="#linear-gradient-2"/></defs><title>logo_1</title><g class="cls-1"><g id="Layer_2" data-name="Layer 2"><g id="Layer_1-2" data-name="Layer 1"><path class="cls-2" d="M106.7,26.66V91.6a9.32,9.32,0,0,1-9.32,9.32H39.47A10.28,10.28,0,0,1,29.2,90.63a2.23,2.23,0,0,1,2-2.23A21.41,21.41,0,0,0,33.1,46h-.16l-1-.15h0l-.13,0-1.25-.26h0c-.45-.1-.91-.23-1.36-.37-4.55-1.38-8.69-4.23-8.69-7.88,0-4.63,4.54-8.38,10.18-8.5h.07c6.8-.75,12-5.1,12-10.33,0-4.14-3.25-7.71-8-9.42a4.16,4.16,0,0,1-1.12-7.29A10.25,10.25,0,0,1,39.47,0h39.1a1.5,1.5,0,0,1,.37,0A1.78,1.78,0,0,1,80.37,1.8V17.54a1.8,1.8,0,0,0,.34,1.05c1.83,2.51,3.21,3.34,5.88,5.79a1.8,1.8,0,0,0,1.22.48H104.9A1.79,1.79,0,0,1,106.7,26.66Z"/><path class="cls-3" d="M106.7,26.66V91.6a9.32,9.32,0,0,1-9.32,9.32H39.47A10.28,10.28,0,0,1,29.2,90.63a2.23,2.23,0,0,1,2-2.23A21.41,21.41,0,0,0,33.1,46h-.16l-1-.15h0l-.13,0-1.25-.26h0c-.45-.1-.91-.23-1.36-.37-4.55-1.38-8.69-4.23-8.69-7.88,0-4.63,4.54-8.38,10.18-8.5h.07c6.8-.75,12-5.1,12-10.33,0-4.14-3.25-7.71-8-9.42a4.16,4.16,0,0,1-1.12-7.29A10.25,10.25,0,0,1,39.47,0h39.1a1.5,1.5,0,0,1,.37,0A1.78,1.78,0,0,1,80.37,1.8V17.54a1.8,1.8,0,0,0,.34,1.05c1.83,2.51,3.21,3.34,5.88,5.79a1.8,1.8,0,0,0,1.22.48H104.9A1.79,1.79,0,0,1,106.7,26.66Z"/><path class="cls-4" d="M106.7,26.66V91.6a9.32,9.32,0,0,1-9.32,9.32H39.47A10.28,10.28,0,0,1,29.2,90.63a2.24,2.24,0,0,1,2-2.23A21.44,21.44,0,0,0,50.65,67.1a21.18,21.18,0,0,0-5.2-14l.3-.62L61,28.4,78.94,0A1.79,1.79,0,0,1,80.37,1.8V17.54a1.8,1.8,0,0,0,.34,1.05c1.83,2.51,3.2,3.34,5.88,5.79a1.8,1.8,0,0,0,1.22.48H104.9A1.8,1.8,0,0,1,106.7,26.66Z"/><path class="cls-5" d="M106.7,25.54v.65H87.1A8.12,8.12,0,0,1,79,18.07V0h.72Z"/><path class="cls-6" d="M106.7,25.54v.65H87.1A8.12,8.12,0,0,1,79,18.07V0h.72Z"/><circle class="cls-2" cx="26.04" cy="17.56" r="4.05"/><path class="cls-2" d="M33.1,46h0Z"/><circle class="cls-2" cx="32.58" cy="66.84" r="8.8"/><circle class="cls-2" cx="7.22" cy="54.56" r="7.22"/><circle class="cls-2" cx="13.97" cy="91.7" r="4.04"/><path class="cls-7" d="M201.85,24.27h14.52l-15.46,55.4H185.44l-9.71-35.12-9.62,35.12H150.64l-15.7-55.4h14.44L159,64.12l9.87-39.85h15.31l9.47,39.22Z"/><path class="cls-7" d="M256.38,24.11V34.37h-20V46.29H254V56.55H236.34V69.41h20V79.67H222.84V24.11Z"/><path class="cls-7" d="M268,24.27h24.07q8.44,0,13.45,4.11a12.87,12.87,0,0,1,5,10.41q0,9.39-11,12.71a13.82,13.82,0,0,1,8.92,4.65,13.52,13.52,0,0,1,3.31,9.08,12.79,12.79,0,0,1-4.85,10.53q-4.85,3.92-13.53,3.91H268Zm13.49,10.26v12h8.84A7,7,0,0,0,295,45a5.52,5.52,0,0,0,1.77-4.46,5.65,5.65,0,0,0-1.77-4.5,6.91,6.91,0,0,0-4.7-1.54Zm0,34.88h10.18a6.52,6.52,0,0,0,4.58-1.66A5.87,5.87,0,0,0,298,63.18a6.29,6.29,0,0,0-1.73-4.66,6.09,6.09,0,0,0-4.5-1.74H281.47Z"/><path class="cls-2" d="M318.32,31.85v-7H356.6v7H342V79.67h-9V31.85Z"/><path class="cls-2" d="M396,24.75v7h-21.3V48.42H393.6v6.94H374.67V72.65H396v7h-30.3V24.75Z"/><path class="cls-2" d="M416,57.42V79.67h-9V24.82H426q9.3,0,14.36,4.62a15.19,15.19,0,0,1,5.05,11.72A16.05,16.05,0,0,1,442,51.1q-3.36,4.42-10.3,5.76l14.52,22.81h-11L421.54,57.42Zm0-25.57V50.39H426q5.13,0,7.65-2.44a9,9,0,0,0,2.53-6.83,9.06,9.06,0,0,0-2.53-6.83q-2.52-2.45-7.65-2.44Z"/><path class="cls-2" d="M514.65,24.82V79.67h-9V42.11L488.93,79.67h-6.24l-16.8-37.56V79.67h-9V24.82h9.71l19.25,43,19.18-43Z"/><path class="cls-2" d="M543.53,31.45A10.07,10.07,0,0,0,537,33.51a7.22,7.22,0,0,0-2.52,6,6.77,6.77,0,0,0,3,6,20.62,20.62,0,0,0,7.26,3q4.26.94,8.52,2.17a15.35,15.35,0,0,1,7.26,4.54q3,3.32,3,9.39t-5.13,10.89q-5.13,4.82-13.73,4.81t-14-4a13.15,13.15,0,0,1-5.37-11.13h9.63a8.39,8.39,0,0,0,2.69,5.76c1.57,1.42,3.89,2.13,6.94,2.13a10.42,10.42,0,0,0,7.22-2.37,7.27,7.27,0,0,0,2.64-5.6,7.36,7.36,0,0,0-1.61-5,9.88,9.88,0,0,0-4.19-2.72A50.22,50.22,0,0,0,543,55.6c-2.05-.47-4.12-1-6.19-1.66a26.37,26.37,0,0,1-5.69-2.44,11.4,11.4,0,0,1-4.18-4.38,14.23,14.23,0,0,1-1.62-7.06,14.44,14.44,0,0,1,5.17-11.57q5.17-4.38,13.42-4.38t13.18,3.79q4.92,3.8,5.48,11h-9.94a8,8,0,0,0-2.68-5.29A9.21,9.21,0,0,0,543.53,31.45Z"/><path class="cls-8" d="M201.85,24.27h14.52l-15.46,55.4H185.44l-9.71-35.12-9.62,35.12H150.64l-15.7-55.4h14.44L159,64.12l9.87-39.85h15.31l9.47,39.22Z"/><path class="cls-8" d="M256.38,24.11V34.37h-20V46.29H254V56.55H236.34V69.41h20V79.67H222.84V24.11Z"/><path class="cls-8" d="M268,24.27h24.07q8.44,0,13.45,4.11a12.87,12.87,0,0,1,5,10.41q0,9.39-11,12.71a13.82,13.82,0,0,1,8.92,4.65,13.52,13.52,0,0,1,3.31,9.08,12.79,12.79,0,0,1-4.85,10.53q-4.85,3.92-13.53,3.91H268Zm13.49,10.26v12h8.84A7,7,0,0,0,295,45a5.52,5.52,0,0,0,1.77-4.46,5.65,5.65,0,0,0-1.77-4.5,6.91,6.91,0,0,0-4.7-1.54Zm0,34.88h10.18a6.52,6.52,0,0,0,4.58-1.66A5.87,5.87,0,0,0,298,63.18a6.29,6.29,0,0,0-1.73-4.66,6.09,6.09,0,0,0-4.5-1.74H281.47Z"/></g></g></g></svg>