<svg xmlns="http://www.w3.org/2000/svg" xmlns:xlink="http://www.w3.org/1999/xlink" viewBox="0 0 331.54 66.08"><defs><style>.cls-1{isolation:isolate;}.cls-2{fill:#6f0ee6;}.cls-3{fill:#190069;}.cls-4{opacity:0.26;mix-blend-mode:overlay;}.cls-5{fill:url(#linear-gradient);}.cls-6{fill:#7f54f7;}.cls-7{fill:url(#linear-gradient-2);}.cls-8{fill:#7a6eff;}.cls-9{fill:none;}.cls-10{fill:url(#linear-gradient-3);}</style><linearGradient id="linear-gradient" x1="19.48" y1="39.86" x2="32.14" y2="5.49" gradientUnits="userSpaceOnUse"><stop offset="0"/><stop offset="1" stop-color="#fff"/></linearGradient><linearGradient id="linear-gradient-2" x1="26.75" y1="50.49" x2="25.57" y2="12.05" xlink:href="#linear-gradient"/><linearGradient id="linear-gradient-3" x1="18.92" y1="73.65" x2="27.18" y2="38.18" xlink:href="#linear-gradient"/></defs><title>logo</title><g class="cls-1"><g id="Layer_2" data-name="Layer 2"><g id="Layer_1-2" data-name="Layer 1"><path class="cls-2" d="M68.79,21.76a44.73,44.73,0,0,1,6.81-.46c4.23,0,7,.76,9.13,2.38,2.31,1.72,3.77,4.46,3.77,8.4,0,4.26-1.56,7.2-3.71,9C82.45,43.05,78.88,44,74.51,44a44.71,44.71,0,0,1-5.72-.33Zm5.06,18.18a9.16,9.16,0,0,0,1.75.1c4.56,0,7.54-2.48,7.54-7.8,0-4.63-2.68-7.08-7-7.08a10.41,10.41,0,0,0-2.28.2Z"/><path class="cls-2" d="M97,23.08a2.52,2.52,0,0,1-2.71,2.51,2.53,2.53,0,1,1,0-5.05A2.52,2.52,0,0,1,97,23.08Zm-5.2,20.67V27.58h5V43.75Z"/><path class="cls-2" d="M100.8,39.35a9.89,9.89,0,0,0,4.33,1.22c1.53,0,2.15-.53,2.15-1.35s-.49-1.23-2.38-1.85c-3.34-1.13-4.63-2.95-4.59-4.86,0-3,2.58-5.3,6.58-5.3a10.77,10.77,0,0,1,4.56.93l-.89,3.47a8.06,8.06,0,0,0-3.51-.92c-1.22,0-1.92.49-1.92,1.32s.63,1.16,2.62,1.85c3.07,1.06,4.36,2.61,4.39,5,0,3-2.38,5.23-7,5.23A11.32,11.32,0,0,1,99.91,43Z"/><path class="cls-2" d="M127.32,43.35a12.12,12.12,0,0,1-4.49.73c-5.23,0-8.57-3.18-8.57-8.27,0-4.73,3.24-8.6,9.26-8.6a11.89,11.89,0,0,1,3.84.63l-.8,3.74a6.73,6.73,0,0,0-2.81-.5,4.19,4.19,0,0,0-4.33,4.53,4.21,4.21,0,0,0,4.43,4.53,7.94,7.94,0,0,0,2.88-.49Z"/><path class="cls-2" d="M130.1,20.27h5V43.75h-5Z"/><path class="cls-2" d="M148.39,43.75l-.3-1.62H148a5.8,5.8,0,0,1-4.62,2,5,5,0,0,1-5.23-5c0-4.2,3.77-6.22,9.49-6.18v-.23c0-.86-.46-2.09-2.94-2.09a9.12,9.12,0,0,0-4.47,1.23l-.92-3.24a13.29,13.29,0,0,1,6.28-1.43c5.39,0,7.11,3.18,7.11,7v5.62a25.84,25.84,0,0,0,.23,3.94Zm-.59-7.64c-2.65,0-4.7.59-4.7,2.55a1.8,1.8,0,0,0,2,1.91,2.74,2.74,0,0,0,2.62-1.85,3.9,3.9,0,0,0,.1-.86Z"/><path class="cls-2" d="M161.85,23.08a2.52,2.52,0,0,1-2.71,2.51,2.53,2.53,0,1,1,0-5.05A2.52,2.52,0,0,1,161.85,23.08Zm-5.19,20.67V27.58h5V43.75Z"/><path class="cls-2" d="M165.72,32.74c0-2-.06-3.74-.13-5.16h4.23l.23,2.18h.1a5.64,5.64,0,0,1,4.9-2.55A4.59,4.59,0,0,1,179.48,30h.06A7.24,7.24,0,0,1,181.63,28a5.8,5.8,0,0,1,3.07-.8c3.11,0,5.46,2.19,5.46,7v9.53h-4.9V35c0-2.35-.76-3.7-2.38-3.7A2.46,2.46,0,0,0,180.57,33a4.25,4.25,0,0,0-.2,1.29v9.46h-4.89V34.69c0-2-.73-3.44-2.32-3.44a2.56,2.56,0,0,0-2.35,1.82,3.4,3.4,0,0,0-.19,1.25v9.43h-4.9Z"/><path class="cls-2" d="M198,37.27c.17,2.08,2.22,3.07,4.57,3.07a14.27,14.27,0,0,0,4.46-.66l.66,3.41a16,16,0,0,1-5.85,1c-5.49,0-8.63-3.18-8.63-8.24,0-4.1,2.54-8.63,8.17-8.63,5.22,0,7.2,4.07,7.2,8.07a13,13,0,0,1-.16,2ZM204,33.83c0-1.23-.53-3.28-2.84-3.28-2.12,0-3,1.92-3.11,3.28Z"/><path class="cls-2" d="M211.63,32.9c0-2.38-.07-3.93-.14-5.32h4.34l.16,3h.13a4.76,4.76,0,0,1,4.37-3.34,5,5,0,0,1,1.06.07V32a7,7,0,0,0-1.36-.13,3.23,3.23,0,0,0-3.44,2.54,5.66,5.66,0,0,0-.1,1.13v8.2h-5Z"/><path class="cls-3" d="M224.52,38.56a13,13,0,0,0,5.59,1.38c2.31,0,3.54-.95,3.54-2.41s-1.06-2.18-3.74-3.14c-3.7-1.29-6.11-3.34-6.11-6.58,0-3.8,3.17-6.71,8.43-6.71a13.71,13.71,0,0,1,5.68,1.12l-1.12,4.07a10.57,10.57,0,0,0-4.66-1.06c-2.18,0-3.24,1-3.24,2.15,0,1.42,1.25,2.05,4.13,3.14C237,32,238.81,34,238.81,37.17c0,3.73-2.88,6.91-9,6.91a14.47,14.47,0,0,1-6.31-1.36Z"/><path class="cls-3" d="M251.51,43.75l-.3-1.62h-.1a5.82,5.82,0,0,1-4.63,2,5,5,0,0,1-5.22-5c0-4.2,3.77-6.22,9.49-6.18v-.23c0-.86-.47-2.09-2.95-2.09a9.11,9.11,0,0,0-4.46,1.23l-.93-3.24a13.34,13.34,0,0,1,6.29-1.43c5.39,0,7.11,3.18,7.11,7v5.62a24.6,24.6,0,0,0,.23,3.94Zm-.6-7.64c-2.64,0-4.69.59-4.69,2.55a1.8,1.8,0,0,0,2,1.91,2.73,2.73,0,0,0,2.61-1.85,3.38,3.38,0,0,0,.1-.86Z"/><path class="cls-3" d="M259.78,32.74c0-2-.07-3.74-.14-5.16h4.24l.23,2.18h.1a5.6,5.6,0,0,1,4.89-2.55A4.58,4.58,0,0,1,273.53,30h.07A7.08,7.08,0,0,1,275.68,28a5.84,5.84,0,0,1,3.08-.8c3.1,0,5.45,2.19,5.45,7v9.53h-4.89V35c0-2.35-.76-3.7-2.38-3.7A2.46,2.46,0,0,0,274.62,33a4.25,4.25,0,0,0-.2,1.29v9.46h-4.89V34.69c0-2-.73-3.44-2.31-3.44a2.56,2.56,0,0,0-2.35,1.82,3.21,3.21,0,0,0-.2,1.25v9.43h-4.89Z"/><path class="cls-3" d="M288.22,33c0-2.12-.07-3.93-.13-5.42h4.36l.23,2.25h.07a6.21,6.21,0,0,1,5.39-2.62c3.54,0,6.71,3.08,6.71,8.24,0,5.88-3.74,8.66-7.34,8.66a5,5,0,0,1-4.2-1.85h-.07v8h-5Zm5,3.8a5.46,5.46,0,0,0,.1,1.06,3,3,0,0,0,3,2.38c2.18,0,3.47-1.82,3.47-4.56,0-2.58-1.16-4.53-3.41-4.53a3.16,3.16,0,0,0-3,2.55,4.18,4.18,0,0,0-.1.89Z"/><path class="cls-3" d="M308,20.27h5V43.75h-5Z"/><path class="cls-3" d="M321,37.27c.16,2.08,2.21,3.07,4.56,3.07a14.29,14.29,0,0,0,4.47-.66l.66,3.41a16,16,0,0,1-5.86,1c-5.49,0-8.63-3.18-8.63-8.24,0-4.1,2.55-8.63,8.17-8.63,5.22,0,7.21,4.07,7.21,8.07a11.56,11.56,0,0,1-.17,2Zm5.92-3.44c0-1.23-.53-3.28-2.85-3.28-2.11,0-3,1.92-3.11,3.28Z"/><path class="cls-2" d="M53.32,30.23c0-.25,0-.48,0-.72q0-.81-.09-1.59l-.06-.68a1,1,0,0,0,0-.16c0-.18,0-.35-.05-.53l-.09-.7c-.05-.38-.1-.74-.16-1.1s-.11-.67-.18-1c0,0,0-.05,0-.07a1.18,1.18,0,0,0,0-.2c0-.24-.09-.46-.14-.69s-.06-.28-.1-.42L52.27,22c0-.2-.1-.4-.15-.59s-.13-.5-.21-.74-.1-.35-.15-.51c-.16-.52-.34-1-.52-1.54a26.63,26.63,0,0,0-5.08-8.5,26.92,26.92,0,0,0-2-2,20,20,0,0,0-1.66-1.39C36.87,2.3,28.78,0,17.84,0L16,0c-3.08,0-6,.21-8.78.46L6.45.56C5.67.63,4.9.71,4.15.8,2.71,1,1.32,1.15,0,1.35v64c2.65.3,5.61.53,8.91.65q3,.12,6.33.12h1.08l.69,0h.62l.92,0,.59,0,.75,0,.48,0,.84-.07h.12l.45,0,.25,0,.95-.11.28,0,.45-.06.13,0,.5-.07.55-.09.76-.12c.38-.06.75-.13,1.12-.21l.83-.16.42-.1a.31.31,0,0,0,.13,0c.18,0,.35-.07.52-.12l.1,0,.59-.14L30,64.3l.87-.24.77-.24h0l.63-.2.61-.21a35.14,35.14,0,0,0,5-2.17l.85-.48c.25-.14.49-.29.73-.44l.19-.12.55-.36c.27-.17.53-.36.79-.54l.55-.41c.3-.23.6-.47.88-.71a2.69,2.69,0,0,0,.32-.27l.43-.37.09-.08c.11-.1.22-.2.32-.31l.45-.43c.41-.41.82-.83,1.21-1.28l.23-.25.39-.46.11-.12.49-.62c.41-.52.8-1.05,1.16-1.6.18-.26.35-.53.52-.79s.29-.47.43-.71l.07-.11c.25-.44.5-.88.74-1.34.12-.23.23-.45.34-.69h0c.22-.46.44-.93.65-1.42s.49-1.19.72-1.81c0-.07,0-.13.07-.2s0-.13.07-.2l.3-.92s0,0,0-.05c.08-.25.15-.5.22-.75l0-.09c.07-.23.13-.48.2-.71l0-.12c.06-.23.11-.46.17-.68a1.94,1.94,0,0,0,0-.2l.18-.79c0-.17.07-.33.1-.5s.12-.59.17-.88c.12-.67.22-1.36.31-2l.09-.75v-.12c0-.26.05-.53.08-.8,0-.53.08-1.05.11-1.58s0-.77,0-1.16,0-.47,0-.72,0-.53,0-.8S53.34,30.63,53.32,30.23ZM35.58,32.07a21.44,21.44,0,0,1-1.85,9.34c-.09.21-.2.41-.3.6a12.72,12.72,0,0,1-1.5,2.18l-.2.22a9.78,9.78,0,0,1-.87.83A14.05,14.05,0,0,1,23.46,48c-.47,0-.95.09-1.45.12s-.87,0-1.32,0c-.91,0-1.8,0-2.65-.05h-.28v-30C18.48,18,19.2,18,19.91,18h.68l1.46,0a20.12,20.12,0,0,1,5.61.7,11.22,11.22,0,0,1,1.8.69,7.3,7.3,0,0,1,.68.36,8,8,0,0,1,1.2.84h0a7.67,7.67,0,0,1,.77.74c2.25,2.39,3.37,5.74,3.45,10.24,0,.13,0,.27,0,.41Z"/><g class="cls-4"><path class="cls-5" d="M53.32,30.23c0-.25,0-.48,0-.72q0-.81-.09-1.59l-.06-.68a1,1,0,0,0,0-.16c0-.18,0-.35-.05-.53l-.09-.7c-.05-.38-.1-.74-.16-1.1s-.11-.67-.18-1c0,0,0-.05,0-.07a1.18,1.18,0,0,0,0-.2c0-.24-.09-.46-.14-.69s-.06-.28-.1-.42L52.27,22c0-.2-.1-.4-.15-.59s-.13-.5-.21-.74-.1-.35-.15-.51c-.16-.52-.34-1-.52-1.54a26.63,26.63,0,0,0-5.08-8.5,26.92,26.92,0,0,0-2-2,20,20,0,0,0-1.66-1.39C36.87,2.3,28.78,0,17.84,0L16,0c-3.08,0-6,.21-8.78.46L6.45.56C5.67.63,4.9.71,4.15.8,2.71,1,1.32,1.15,0,1.35v64c2.65.3,5.61.53,8.91.65q3,.12,6.33.12h1.08l.69,0h.62l.92,0,.59,0,.75,0,.48,0,.84-.07h.12l.45,0,.25,0,.95-.11.28,0,.45-.06.13,0,.5-.07.55-.09.76-.12c.38-.06.75-.13,1.12-.21l.83-.16.42-.1a.31.31,0,0,0,.13,0c.18,0,.35-.07.52-.12l.1,0,.59-.14L30,64.3l.87-.24.77-.24h0l.63-.2.61-.21a35.14,35.14,0,0,0,5-2.17l.85-.48c.25-.14.49-.29.73-.44l.19-.12.55-.36c.27-.17.53-.36.79-.54l.55-.41c.3-.23.6-.47.88-.71a2.69,2.69,0,0,0,.32-.27l.43-.37.09-.08c.11-.1.22-.2.32-.31l.45-.43c.41-.41.82-.83,1.21-1.28l.23-.25.39-.46.11-.12.49-.62c.41-.52.8-1.05,1.16-1.6.18-.26.35-.53.52-.79s.29-.47.43-.71l.07-.11c.25-.44.5-.88.74-1.34.12-.23.23-.45.34-.69h0c.22-.46.44-.93.65-1.42s.49-1.19.72-1.81c0-.07,0-.13.07-.2s0-.13.07-.2l.3-.92s0,0,0-.05c.08-.25.15-.5.22-.75l0-.09c.07-.23.13-.48.2-.71l0-.12c.06-.23.11-.46.17-.68a1.94,1.94,0,0,0,0-.2l.18-.79c0-.17.07-.33.1-.5s.12-.59.17-.88c.12-.67.22-1.36.31-2l.09-.75v-.12c0-.26.05-.53.08-.8,0-.53.08-1.05.11-1.58s0-.77,0-1.16,0-.47,0-.72,0-.53,0-.8S53.34,30.63,53.32,30.23ZM35.58,32.07a21.44,21.44,0,0,1-1.85,9.34c-.09.21-.2.41-.3.6a12.72,12.72,0,0,1-1.5,2.18l-.2.22a9.78,9.78,0,0,1-.87.83A14.05,14.05,0,0,1,23.46,48c-.47,0-.95.09-1.45.12s-.87,0-1.32,0c-.91,0-1.8,0-2.65-.05h-.28v-30C18.48,18,19.2,18,19.91,18h.68l1.46,0a20.12,20.12,0,0,1,5.61.7,11.22,11.22,0,0,1,1.8.69,7.3,7.3,0,0,1,.68.36,8,8,0,0,1,1.2.84h0a7.67,7.67,0,0,1,.77.74c2.25,2.39,3.37,5.74,3.45,10.24,0,.13,0,.27,0,.41Z"/></g><path class="cls-6" d="M53.34,31.45c0,.27,0,.54,0,.8s0,.48,0,.72,0,.77,0,1.16-.07,1-.11,1.58c0,.27,0,.54-.08.8v.12l-.09.75c-.09.69-.19,1.38-.31,2-.05.29-.11.59-.17.88s-.07.33-.1.5l-.18.79a1.94,1.94,0,0,1,0,.2c-.06.22-.11.45-.17.68l0,.12c-.07.23-.13.48-.2.71l0,.09c-.07.25-.14.5-.22.75,0,0,0,0,0,.05l-.3.92c0,.07-.05.14-.07.2s-.05.13-.07.2c-.23.62-.47,1.22-.72,1.81s-.43,1-.65,1.42h0c-.11.24-.22.46-.34.69-.24.46-.49.9-.74,1.34l-.07.11L38,50.38a23.44,23.44,0,0,0,7.16,5.06c-.39.45-.8.87-1.21,1.28l-.45.43c-.1.11-.21.21-.32.31l-.09.08-.43.37a2.69,2.69,0,0,1-.32.27c-.28.24-.58.48-.88.71L41,59.3c-.26.18-.52.37-.79.54l-.55.36-.19.12c-.24.15-.48.3-.73.44l-.85.48a35.14,35.14,0,0,1-5,2.17l-.61.21-.63.2h0l-.77.24L30,64.3l-.62.16-.59.14-.1,0c-.17,0-.34.08-.52.12a.31.31,0,0,1-.13,0l-.42.1-.83.16c-.37.08-.74.15-1.12.21l-.76.12-.55.09-.5.07-.13,0-.45.06-.28,0-.95.11-.25,0-.45,0h-.12l-.84.07-.48,0-.75,0-.59,0-.92,0H17l-.69,0H15.24q-3.36,0-6.33-.12c-3.3-.12-6.26-.35-8.91-.65V23.41C2.63,20,11.42,18.62,17.76,18.13v30H18c.85,0,1.74.05,2.65.05q.68,0,1.32,0c.5,0,1-.07,1.45-.12a14.05,14.05,0,0,0,7.4-2.78,9.78,9.78,0,0,0,.87-.83l.2-.22A12.72,12.72,0,0,0,33.43,42c.1-.19.21-.39.3-.6a21.44,21.44,0,0,0,1.85-9.34v-.19c0-.14,0-.28,0-.41-.08-4.5-1.2-7.85-3.45-10.24a7.67,7.67,0,0,0-.77-.74h0a8,8,0,0,0-1.2-.84,7.3,7.3,0,0,0-.68-.36,1.05,1.05,0,0,0,.17-.29c2-5,3.71-9.23,8-11a16.26,16.26,0,0,1,4.89-1.29A20,20,0,0,1,44.18,8.1a26.92,26.92,0,0,1,2,2,26.63,26.63,0,0,1,5.08,8.5c.18.5.36,1,.52,1.54.05.16.1.34.15.51s.15.49.21.74.11.39.15.59c0,1,.1,1.66.27,1.66l.1,0s0,0,0,.07c.07.32.12.66.18,1s.11.72.16,1.1l.09.7c0,.18,0,.35.05.53a1,1,0,0,1,0,.16l.06.68q.06.78.09,1.59c0,.24,0,.47,0,.72S53.34,31,53.34,31.45Z"/><g class="cls-4"><path class="cls-7" d="M53.34,31.45c0,.27,0,.54,0,.8s0,.48,0,.72,0,.77,0,1.16-.07,1-.11,1.58c0,.27,0,.54-.08.8v.12l-.09.75c-.09.69-.19,1.38-.31,2-.05.29-.11.59-.17.88s-.07.33-.1.5l-.18.79a1.94,1.94,0,0,1,0,.2c-.06.22-.11.45-.17.68l0,.12c-.07.23-.13.48-.2.71l0,.09c-.07.25-.14.5-.22.75,0,0,0,0,0,.05l-.3.92c0,.07-.05.14-.07.2s-.05.13-.07.2c-.23.62-.47,1.22-.72,1.81s-.43,1-.65,1.42h0c-.11.24-.22.46-.34.69-.24.46-.49.9-.74,1.34l-.07.11L38,50.38a23.44,23.44,0,0,0,7.16,5.06c-.39.45-.8.87-1.21,1.28l-.45.43c-.1.11-.21.21-.32.31l-.09.08-.43.37a2.69,2.69,0,0,1-.32.27c-.28.24-.58.48-.88.71L41,59.3c-.26.18-.52.37-.79.54l-.55.36-.19.12c-.24.15-.48.3-.73.44l-.85.48a35.14,35.14,0,0,1-5,2.17l-.61.21-.63.2h0l-.77.24L30,64.3l-.62.16-.59.14-.1,0c-.17,0-.34.08-.52.12a.31.31,0,0,1-.13,0l-.42.1-.83.16c-.37.08-.74.15-1.12.21l-.76.12-.55.09-.5.07-.13,0-.45.06-.28,0-.95.11-.25,0-.45,0h-.12l-.84.07-.48,0-.75,0-.59,0-.92,0H17l-.69,0H15.24q-3.36,0-6.33-.12c-3.3-.12-6.26-.35-8.91-.65V23.41C2.63,20,11.42,18.62,17.76,18.13v30H18c.85,0,1.74.05,2.65.05q.68,0,1.32,0c.5,0,1-.07,1.45-.12a14.05,14.05,0,0,0,7.4-2.78,9.78,9.78,0,0,0,.87-.83l.2-.22A12.72,12.72,0,0,0,33.43,42c.1-.19.21-.39.3-.6a21.44,21.44,0,0,0,1.85-9.34v-.19c0-.14,0-.28,0-.41-.08-4.5-1.2-7.85-3.45-10.24a7.67,7.67,0,0,0-.77-.74h0a8,8,0,0,0-1.2-.84,7.3,7.3,0,0,0-.68-.36,1.05,1.05,0,0,0,.17-.29c2-5,3.71-9.23,8-11a16.26,16.26,0,0,1,4.89-1.29A20,20,0,0,1,44.18,8.1a26.92,26.92,0,0,1,2,2,26.63,26.63,0,0,1,5.08,8.5c.18.5.36,1,.52,1.54.05.16.1.34.15.51s.15.49.21.74.11.39.15.59c0,1,.1,1.66.27,1.66l.1,0s0,0,0,.07c.07.32.12.66.18,1s.11.72.16,1.1l.09.7c0,.18,0,.35.05.53a1,1,0,0,1,0,.16l.06.68q.06.78.09,1.59c0,.24,0,.47,0,.72S53.34,31,53.34,31.45Z"/></g><path class="cls-8" d="M52.5,40.31c0,.17-.07.33-.1.5l-.18.79a1.94,1.94,0,0,1,0,.2c-.06.22-.11.45-.17.68l0,.12c-.07.23-.13.48-.2.71l0,.09c-.07.25-.14.5-.22.75,0,0,0,0,0,.05l-.3.92c0,.07-.05.14-.07.2s-.05.13-.07.2c-.23.62-.47,1.22-.72,1.81s-.43,1-.65,1.42h0c-.11.24-.22.46-.34.69-.24.46-.49.9-.74,1.34l-.07.11c-.14.24-.28.48-.43.71s-.34.53-.52.79c-.36.55-.75,1.08-1.16,1.6l-.49.62-.11.12-.39.46-.23.25c-.39.45-.8.87-1.21,1.28l-.45.43c-.1.11-.21.21-.32.31l-.09.08-.43.37a2.69,2.69,0,0,1-.32.27c-.28.24-.58.48-.88.71L41,59.3c-.26.18-.52.37-.79.54l-.55.36-.19.12c-.24.15-.48.3-.73.44l-.85.48a35.14,35.14,0,0,1-5,2.17l-.61.21-.63.2h0l-.77.24L30,64.3l-.62.16-.59.14-.1,0c-.17,0-.34.08-.52.12a.31.31,0,0,1-.13,0l-.42.1-.83.16c-.37.08-.74.15-1.12.21l-.76.12-.55.09-.5.07-.13,0-.45.06-.28,0-.95.11-.25,0-.45,0h-.12l-.84.07-.48,0-.75,0-.59,0-.92,0H17l-.69,0H15.24q-3.36,0-6.33-.12c-3.3-.12-6.26-.35-8.91-.65V43.91l.46,0c6.14.44,12,6.07,17.58,4.19.85,0,1.74.05,2.65.05q.68,0,1.32,0c.5,0,1-.07,1.45-.12a14.05,14.05,0,0,0,7.4-2.78,9.78,9.78,0,0,0,.87-.83l.2-.22A12.72,12.72,0,0,0,33.43,42c.1-.19.21-.39.3-.6a21.44,21.44,0,0,0,1.85-9.34v0c5.77-1.13,12.24,2.08,16,6.91C51.87,39.4,52.19,39.85,52.5,40.31Z"/><path class="cls-9" d="M53.32,30.23c0-.25,0-.48,0-.72q0-.81-.09-1.59l-.06-.68a1,1,0,0,0,0-.16c0-.18,0-.35-.05-.53l-.09-.7c-.05-.38-.1-.74-.16-1.1s-.11-.67-.18-1c0,0,0-.05,0-.07a1.18,1.18,0,0,0,0-.2c0-.24-.09-.46-.14-.69s-.06-.28-.1-.42L52.27,22c0-.2-.1-.4-.15-.59s-.13-.5-.21-.74-.1-.35-.15-.51c-.16-.52-.34-1-.52-1.54a26.63,26.63,0,0,0-5.08-8.5,26.92,26.92,0,0,0-2-2,20,20,0,0,0-1.66-1.39C36.87,2.3,28.78,0,17.84,0L16,0c-3.08,0-6,.21-8.78.46L6.45.56C5.67.63,4.9.71,4.15.8,2.71,1,1.32,1.15,0,1.35v64c2.65.3,5.61.53,8.91.65q3,.12,6.33.12h1.08l.69,0h.62l.92,0,.59,0,.75,0,.48,0,.84-.07h.12l.45,0,.25,0,.95-.11.28,0,.45-.06.13,0,.5-.07.55-.09.76-.12c.38-.06.75-.13,1.12-.21l.83-.16.42-.1a.31.31,0,0,0,.13,0c.18,0,.35-.07.52-.12l.1,0,.59-.14L30,64.3l.87-.24.77-.24h0l.63-.2.61-.21a35.14,35.14,0,0,0,5-2.17l.85-.48c.25-.14.49-.29.73-.44l.19-.12.55-.36c.27-.17.53-.36.79-.54l.55-.41c.3-.23.6-.47.88-.71a2.69,2.69,0,0,0,.32-.27l.43-.37.09-.08c.11-.1.22-.2.32-.31l.45-.43c.41-.41.82-.83,1.21-1.28l.23-.25.39-.46.11-.12.49-.62c.41-.52.8-1.05,1.16-1.6.18-.26.35-.53.52-.79s.29-.47.43-.71l.07-.11c.25-.44.5-.88.74-1.34.12-.23.23-.45.34-.69h0c.22-.46.44-.93.65-1.42s.49-1.19.72-1.81c0-.07,0-.13.07-.2s0-.13.07-.2l.3-.92s0,0,0-.05c.08-.25.15-.5.22-.75l0-.09c.07-.23.13-.48.2-.71l0-.12c.06-.23.11-.46.17-.68a1.94,1.94,0,0,0,0-.2l.18-.79c0-.17.07-.33.1-.5s.12-.59.17-.88c.12-.67.22-1.36.31-2l.09-.75v-.12c0-.26.05-.53.08-.8,0-.53.08-1.05.11-1.58s0-.77,0-1.16,0-.47,0-.72,0-.53,0-.8S53.34,30.63,53.32,30.23ZM35.58,32.07a21.44,21.44,0,0,1-1.85,9.34c-.09.21-.2.41-.3.6a12.72,12.72,0,0,1-1.5,2.18l-.2.22a9.78,9.78,0,0,1-.87.83A14.05,14.05,0,0,1,23.46,48c-.47,0-.95.09-1.45.12s-.87,0-1.32,0c-.91,0-1.8,0-2.65-.05h-.28v-30C18.48,18,19.2,18,19.91,18h.68l1.46,0a20.12,20.12,0,0,1,5.61.7,11.22,11.22,0,0,1,1.8.69,7.3,7.3,0,0,1,.68.36,8,8,0,0,1,1.2.84h0a7.67,7.67,0,0,1,.77.74c2.25,2.39,3.37,5.74,3.45,10.24,0,.13,0,.27,0,.41Z"/><g class="cls-4"><path class="cls-10" d="M52.5,40.31c0,.17-.07.33-.1.5l-.18.79a1.94,1.94,0,0,1,0,.2c-.06.22-.11.45-.17.68l0,.12c-.07.23-.13.48-.2.71l0,.09c-.07.25-.14.5-.22.75,0,0,0,0,0,.05l-.3.92c0,.07-.05.14-.07.2s-.05.13-.07.2c-.23.62-.47,1.22-.72,1.81s-.43,1-.65,1.42h0c-.11.24-.22.46-.34.69-.24.46-.49.9-.74,1.34l-.07.11c-.14.24-.28.48-.43.71s-.34.53-.52.79c-.36.55-.75,1.08-1.16,1.6l-.49.62-.11.12-.39.46-.23.25c-.39.45-.8.87-1.21,1.28l-.45.43c-.1.11-.21.21-.32.31l-.09.08-.43.37a2.69,2.69,0,0,1-.32.27c-.28.24-.58.48-.88.71L41,59.3c-.26.18-.52.37-.79.54l-.55.36-.19.12c-.24.15-.48.3-.73.44l-.85.48a35.14,35.14,0,0,1-5,2.17l-.61.21-.63.2h0l-.77.24L30,64.3l-.62.16-.59.14-.1,0c-.17,0-.34.08-.52.12a.31.31,0,0,1-.13,0l-.42.1-.83.16c-.37.08-.74.15-1.12.21l-.76.12-.55.09-.5.07-.13,0-.45.06-.28,0-.95.11-.25,0-.45,0h-.12l-.84.07-.48,0-.75,0-.59,0-.92,0H17l-.69,0H15.24q-3.36,0-6.33-.12c-3.3-.12-6.26-.35-8.91-.65V43.91l.46,0c6.14.44,12,6.07,17.58,4.19.85,0,1.74.05,2.65.05q.68,0,1.32,0c.5,0,1-.07,1.45-.12a14.05,14.05,0,0,0,7.4-2.78,9.78,9.78,0,0,0,.87-.83l.2-.22A12.72,12.72,0,0,0,33.43,42c.1-.19.21-.39.3-.6a21.44,21.44,0,0,0,1.85-9.34v0c5.77-1.13,12.24,2.08,16,6.91C51.87,39.4,52.19,39.85,52.5,40.31Z"/></g></g></g></g></svg>